Patient4_TMGait_0pt5_02_left_04_EMG.mot
version=1
nRows=13
nColumns=33
inDegrees=no
endheader
time	1LAddLong	2LGlutMax	3LGlutMed	4LIliopsoas	5LSemiMemb	6LBicFemLong	7LRecFem	8LVastMed	9LVastLat	10LGasMed	11LTibAnt	12lTibPost	13LPeroneusLong	14LSol	15LExtDigLong	16LFlexDigLong	17RAddLong	18RGlutMax	19RGlutMed	20RIliopsoas	21RSemiMemb	22RBicFemLong	23RRecFem	24RVastMed	25RVastLat	26RGasMed	27RTibAnt	28RTibPost	29RPeroneusLong	30RSol	31RExtDigLong	32RFlexDigLong
5.365	-0.003357	0.092163	-0.054779	-0.00473	0.019531	-0.074463	0.37857	0.00473	-0.087738	0.080719	0.016327	0.003815	-0.066376	0.087738	-0.04425	0.023346	-0.099182	0.11444	-0.13519	0.099182	0.40863	0.096436	-0.11887	-0.018463	0.042267	0.010986	-1.1858	-0.00061	0.07782	-0.089722	-0.00824	-0.006561
5.366	-0.001068	0.080109	-0.074158	0.006256	0.025024	-0.15717	0.39185	0.002747	-0.11185	0.095673	0.018768	-0.006256	-0.048218	0.072021	-0.035095	0.025787	-0.12268	0.072937	0.0383	0.037231	0.60333	0.13229	-0.19363	0.11826	0.18295	0.001831	-1.1177	0.00885	-0.023956	-0.052948	0.002747	-0.003662
5.367	0.005188	0.1062	-0.08316	0.01358	0.015106	-0.16724	0.38574	0.003967	-0.10498	0.067291	0.011444	-0.008087	-0.021057	0.01358	-0.02243	-0.20462	-0.11261	0.033417	0.17639	0.014038	0.48584	0.059357	-0.10803	0.21668	0.15472	-0.005188	-0.38956	0.009918	-0.17212	-0.066223	-0.001831	-0.009766
5.368	0.006561	0.072784	-0.1001	0.008087	0.038147	-0.1416	0.41	0.003204	-0.11002	0.14603	0.007935	-0.0177	-0.014801	-0.13825	-0.019226	-0.18356	-0.085297	-0.051575	0.31082	-0.051117	0.25681	0.11887	-0.1062	0.19791	-0.055847	0.000763	0.041199	-0.000305	-0.11887	-0.12131	0.001526	-0.009918
5.369	0.008087	0.059357	-0.10559	0.01236	0.04776	-0.10178	0.39948	0.005646	-0.099335	0.23346	0.002899	-0.017242	-0.069733	-0.25055	-0.002594	0.23086	-0.023804	-0.13718	0.41061	-0.053711	0.10559	0.19806	-0.30045	0.22919	-0.32288	0.008087	0.084839	-0.000458	-0.071259	-0.16815	-0.007172	-0.002899
5.37	-0.006256	0.066223	-0.10056	0.0177	0.067291	-0.10223	0.39841	-0.00351	-0.11536	0.49576	0.006104	-0.022583	-0.098724	-0.10712	0.014496	0.11444	0.063019	-0.067902	0.13641	-0.088348	0.10376	0.18372	-0.56793	0.16495	-0.31174	0.011597	-0.06134	-0.001526	0.058136	-0.18463	-0.004883	0.005493
5.371	-0.004425	0.11505	-0.0914	0.011292	0.058441	-0.02243	0.35706	0.010071	-0.10132	0.55878	0.000305	-0.020447	-0.093842	-0.023499	0.041809	-0.005951	0.10895	0.027313	-0.02533	-0.02182	0.11658	0.13779	-0.53482	0.14435	-0.17014	0.006866	-0.2002	0.002441	0.13504	-0.14542	-0.001373	-0.00473
5.372	-0.007477	0.14069	-0.10559	0.005951	0.028381	0.043182	0.33661	0.007935	-0.11276	0.35507	0.003967	-0.02243	-0.040131	0.025787	0.03067	-0.001831	0.1413	0.066681	-0.076904	0.040741	0.12466	0.15488	-0.30106	0.056915	0.44784	0.000916	-0.097504	0.001373	0.037079	-0.095367	-0.000153	0.006256
5.373	-0.002136	0.20477	-0.10498	-0.000458	-0.003967	0.045319	0.30441	0.000916	-0.11993	-0.17593	0.007172	-0.022125	0.018463	0.021057	0.026093	-0.003357	0.15411	0.11688	-0.1474	0.036621	-0.092773	0.17044	-0.14313	-0.013275	0.80734	0	-0.11993	0.000916	0.088654	-0.097809	0.00061	0.002594
5.374	0.00885	0.18097	-0.11643	-0.000153	-0.014038	-0.011749	0.29663	0.006256	-0.11948	-0.028992	0.006256	-0.018463	0.022888	0.032654	0.024567	0.000153	0.10712	0.14832	-0.2771	0.062408	-0.24597	0.088196	-0.11215	0.031891	1.0211	0.000916	-0.077209	0.000916	0.13077	-0.054169	-0.00351	-0.001526
5.375	0.008545	0.20401	-0.11948	0.014343	-0.006409	-0.026093	0.27847	0.005188	-0.11887	0.31311	0.008545	-0.033112	0.031281	-0.1059	0.027924	0.01297	0.076447	0.21042	-0.25223	0.021362	-0.29175	0.019836	-0.035706	0.1535	0.65185	-0.000305	-0.066681	-0.002289	0.080261	0.037689	-0.002747	-0.007629
5.376	0.007629	0.23331	-0.084991	0.005188	-0.017548	-0.020294	0.24612	0.010223	-0.1207	0.89737	-0.002747	-0.030518	0.073547	-0.13351	0.03479	0.003357	0.044861	0.28198	-0.29175	-0.005951	-0.37094	-0.000916	-0.00061	0.17471	0.071411	-0.005646	0.052032	-0.002441	0.005035	0.056	-0.002747	-0.001526
5.377	0.002136	0.27435	-0.095215	0.015106	0.01358	-0.013123	0.21988	0.009155	-0.11261	0.79163	-0.010681	-0.027771	0.12116	-0.13473	0.028076	-0.072174	-0.002136	0.2681	-0.37003	-0.014191	-0.07843	-0.037537	-0.13428	0.32059	-0.44983	-0.000153	0.45853	-0.006561	0.006256	-0.037537	-0.00351	-0.007324
